<svg xmlns="http://www.w3.org/2000/svg" viewBox="0 0 100 106.66">
    <path d="M6.72 43.02c-1.82-1.43-3.4-3.11-4.62-5.12C.29 34.91-.54 31.68.34 28.27c1.04-4.03 3.72-6.66 8.44-7.49 4.2-.74 8.31.03 12.26 1.56 1.92.74 3.82 1.6 5.63 2.58 1.85 1 3.58 2.22 5.39 3.37-1.7-3.6-1.57-7.17.38-10.66 1.89-3.4 4.93-5.39 8.46-6.77-1.75-3.51-4.59-5.35-8.35-6.05-1.96-.36-3-2.01-2.13-3.58.51-.92 1.87-1.38 3.24-1.18 4.9.73 8.32 3.52 10.71 7.73.35.63.59 1.52 1.13 1.78.53.26 1.37-.21 2.08-.22l6.98.09c.82-1.28 1.64-2.79 2.68-4.13C59.31 2.65 61.93.75 65.37.31c.96-.12 1.96-.08 2.92.04.92.11 1.46.8 1.58 1.7.13.93-.25 1.75-1.07 2.18-.7.37-1.48.6-2.26.76-3.46.71-5.85 2.75-7.47 5.87 3.53 1.41 6.59 3.33 8.46 6.83s2.11 6.99.29 10.78c3.61-2.62 7.19-4.83 11.23-6.12 1.99-.64 4.07-1.02 6.13-1.39 1.35-.24 2.74-.31 4.12-.35.62-.02 1.23.26 1.86.33 4.89.52 7.83 4.31 8.54 7.48.6 2.68.24 5.26-.9 7.77-1.25 2.75-3.16 4.92-5.45 6.74.74 2.42 1.59 4.78 2.17 7.2 1.26 5.25 1.87 10.58 1.05 15.97-.36 2.36-.69 4.76-1.39 7.04-.93 3.03-2.01 6-3.57 8.82-1.65 2.98-3.51 5.78-5.75 8.32-1.1 1.25-2.42 2.3-3.54 3.53-2.3 2.5-5.06 4.39-7.93 6.12-1.05.63-2.19 1.12-3.31 1.62-2.13.95-4.22 2.04-6.43 2.77-5.78 1.9-11.73 2.68-17.83 2.22-10.8-.8-20.25-4.78-28.36-11.9-4.24-3.73-7.7-8.12-10.31-13.14-2.35-4.52-3.98-9.3-4.61-14.35-.38-3-.55-6.08-.36-9.09.32-5.11 1.53-10.06 3.51-14.8.02-.05.02-.12.03-.22zm3.91 2.69c-1.54 3.41-2.25 7.11-2.78 10.83-.49 3.47-.39 6.97.15 10.42.66 4.22 1.94 8.28 4 12.03 7.83 14.29 19.99 21.84 36.19 22.96 4.5.31 8.92-.38 13.29-1.38.7-.16 1.36-.49 2.05-.72 4.49-1.46 8.66-3.57 12.37-6.47 9.51-7.43 15.3-17.01 16.33-29.17.25-2.92.12-5.91-.24-8.82-.34-2.71-1.21-5.36-1.88-8.03-.16-.64-.45-1.25-.66-1.81-1.23.5-2.31 1-3.43 1.38-1.08.37-2.2.62-3.34.94l.4 1.01c1.04 2.89.17 5.8-2.29 7.64-1.02.77-2.16 1.05-3.46 1.17-1.48.14-2.79.04-4.07-.73-.56-.33-1.19-.55-1.92-.88v1.84c-.06 3.11-.98 5.99-2.51 8.67-.31.54-.28.92-.05 1.45 3.1 7.09 2.42 13.92-1.87 20.27-5.05 7.48-15.03 10.66-23.53 7.62-7.95-2.84-12.49-8.67-13.87-16.85-.63-3.75.02-7.53 1.75-11.01.27-.54.18-.89-.09-1.36-1.53-2.67-2.38-5.55-2.48-8.64-.02-.63 0-1.26 0-2.03-3.3 1.84-6.5 2.83-9.62.35-2.86-2.28-3.21-5.26-1.81-8.37l-6.64-2.32zM50.16 61c-10.09-.11-16.06 7.45-16.22 15.53-.18 8.77 7.91 15.87 16.02 15.86 8.52-.02 16.11-6.67 16.14-15.75C66.13 67.81 59.14 61 50.16 61zM37 37.67l-1.77-1.42c-5.61-4.37-11.32-8.58-18.36-10.46-2.15-.57-4.31-.92-6.51-.72-3.29.3-5.22 2-5.71 4.92-.23 1.39-.02 2.73.56 4.01 3.37 7.38 12.47 10.56 18.9 9.37 3.27-.6 6.37-1.67 9.27-3.3 1.23-.69 2.36-1.56 3.62-2.41zm26.04.03c1.99 1.69 4.21 2.86 6.54 3.87 3.72 1.6 7.61 2.37 11.62 1.87 3.94-.49 7.45-2.13 10.32-4.96 1.63-1.61 3.03-3.36 3.69-5.6 1.03-3.49-.7-6.66-4.17-7.54-.68-.17-1.4-.26-2.11-.29-2.68-.11-5.27.42-7.79 1.32-6.84 2.45-12.49 6.81-18.11 11.33zm2.15 10.73c-.95-2.72-2.39-4.89-4.19-6.63-1.88.41-3.6.86-5.35 1.14-5.39.86-10.72.54-15.96-1.07-.24-.07-.66-.01-.82.16-1.72 1.79-3.15 3.78-3.93 6.38 10.08 3.29 20.09 3.32 30.24.02zM53.06 23.28c0 .27-.01.54 0 .8.21 3.46 3.7 6.04 7.01 5.16 2.55-.68 4.01-2.4 4.39-4.95.37-2.53-.33-4.76-2.51-6.28-1.8-1.26-3.79-1.36-5.73-.32-2.19 1.18-3.13 3.15-3.17 5.58zm-6.05-.06v-.63c-.12-3.46-3.64-6.19-6.81-5.46-2.44.57-4.16 2.3-4.6 5.25-.53 3.57 2 7.67 6.61 6.82 2.96-.54 4.82-2.81 4.81-5.99zM30.93 46.16c-1.74.57-3.29 1.18-4.89 1.56-1.17.28-2.41.26-3.62.39-.27.03-.61.1-.79.28-.96.97-1.18 2.86-.51 3.88.72 1.11 1.92 1.45 3.49.87 3.25-1.2 5.1-3.71 6.31-6.98zm38.08.24c1.39 3.08 3.19 5.78 6.68 6.87.25.08.53.09.79.1 1.33.05 2.28-.57 2.71-1.74.33-.93-.18-2.79-.93-3.37-.09-.07-.21-.11-.32-.12-.64-.06-1.3-.04-1.93-.18l-7-1.56zm-10.8 11.44c3.03 1.3 5.34 3.13 7.4 5.48.99-2.47 1.5-4.88 1.36-7.52-2.79 1.09-5.53 2.01-8.75 2.05zM33.03 56.1c-.1 2.41.4 4.83 1.36 7.26 1.89-2.4 4.22-4.09 6.63-5.3l-7.99-1.96z" fill="#02304e"/>
    <path d="M10.63 45.71l6.64 2.32c-1.4 3.11-1.06 6.09 1.81 8.37 3.12 2.48 6.32 1.49 9.62-.35v2.03c.1 3.09.95 5.96 2.48 8.64.27.47.36.83.09 1.36-1.74 3.48-2.39 7.25-1.75 11.01 1.38 8.18 5.92 14.01 13.87 16.85 8.5 3.04 18.47-.14 23.53-7.62 4.29-6.35 4.97-13.17 1.87-20.27-.23-.54-.26-.92.05-1.45 1.53-2.68 2.45-5.56 2.51-8.67.01-.56 0-1.12 0-1.84.73.33 1.36.54 1.92.88 1.28.77 2.59.87 4.07.73 1.3-.12 2.44-.4 3.46-1.17 2.46-1.84 3.33-4.75 2.29-7.64-.11-.31-.24-.6-.4-1.01 1.14-.31 2.26-.57 3.34-.94 1.12-.38 2.21-.88 3.43-1.38.21.56.5 1.17.66 1.81.67 2.67 1.54 5.32 1.88 8.03.36 2.91.49 5.91.24 8.82-1.03 12.15-6.83 21.74-16.33 29.17-3.71 2.9-7.88 5.01-12.37 6.47-.69.22-1.35.56-2.05.72-4.37 1-8.79 1.69-13.29 1.38C32 100.84 19.85 93.29 12.01 79c-2.05-3.75-3.34-7.81-4-12.03-.54-3.45-.64-6.96-.15-10.42.53-3.72 1.23-7.42 2.78-10.83z" fill="#00afcb"/>
    <path d="M50.16 61c8.98 0 15.97 6.81 15.94 15.64-.03 9.08-7.62 15.73-16.14 15.75-8.1.02-16.19-7.09-16.02-15.86.16-8.08 6.14-15.64 16.22-15.53zm.66 22.57l-2.45-5.41c2.06-1.49 2.8-3.15 2.54-5.59-.26-2.39-2.01-4.25-4.4-4.42-1.99-.14-3.99-.07-5.99-.13-.68-.02-.87.24-.86.89l.04 13.77c0 .36.11.72.17 1.07h2.18c.75-.03 1.25-.27 1.18-1.22-.09-1.27-.02-2.55-.02-3.81q1.64-.11 2.25 1.24l1.42 3.07c.11.23.39.51.6.52 1.01.05 2.02.02 3.33.02zm4.04-.3c3.17 1.6 5.73.03 6.7-1.97 1.1-2.26 1.04-4.53-.34-6.7-1.27-1.99-4.37-2.78-6.23-1.11-.23-.22-.44-.6-.69-.62-.79-.08-1.59-.03-2.33-.03-.08.16-.13.21-.13.26l-.02 13.85c0 .19.24.5.42.54.54.12 1.1.15 1.66.2.69.06.97-.28.96-.95v-3.47z" fill="#f5bf49"/>
    <path d="M37 37.67l-3.62 2.41c-2.89 1.63-6 2.69-9.27 3.3-6.43 1.19-15.53-1.99-18.9-9.37-.58-1.28-.79-2.62-.56-4.01.49-2.93 2.42-4.62 5.71-4.92 2.21-.2 4.36.14 6.51.72 7.05 1.88 12.75 6.08 18.36 10.46.52.4 1.02.82 1.77 1.42zm26.04.03c5.62-4.52 11.27-8.88 18.11-11.33 2.51-.9 5.1-1.43 7.79-1.32.71.03 1.42.11 2.11.29 3.46.88 5.2 4.05 4.17 7.54-.66 2.25-2.07 4-3.69 5.6-2.87 2.84-6.38 4.47-10.32 4.96-4.01.5-7.9-.27-11.62-1.87-2.33-1-4.55-2.18-6.54-3.87z" fill="#00afcb"/>
    <path d="M65.19 48.43c-10.15 3.29-20.17 3.27-30.24-.02.78-2.6 2.21-4.59 3.93-6.38.16-.17.58-.23.82-.16 5.24 1.61 10.56 1.94 15.96 1.07 1.75-.28 3.47-.74 5.35-1.14 1.8 1.74 3.24 3.91 4.19 6.63zM53.06 23.28c.03-2.43.97-4.4 3.17-5.58 1.94-1.04 3.92-.94 5.73.32 2.18 1.52 2.89 3.75 2.51 6.28-.38 2.54-1.84 4.27-4.39 4.95-3.31.88-6.8-1.69-7.01-5.16-.02-.27 0-.54 0-.8zm2.52.4c0 1.65 1.03 2.91 2.38 2.93 1.26.02 2.45-1.41 2.43-2.93-.02-1.54-1.11-2.77-2.45-2.77-1.4 0-2.37 1.15-2.37 2.78zm-8.57-.46c.02 3.18-1.85 5.45-4.81 5.99-4.61.84-7.14-3.25-6.61-6.82.44-2.95 2.16-4.68 4.6-5.25 3.18-.74 6.69 1.99 6.81 5.46v.63zm-2.53.51c0-1.42-.93-2.66-2.1-2.81-1.3-.17-2.4.65-2.71 2.02-.34 1.53.41 3.13 1.67 3.54 1.58.52 3.13-.85 3.13-2.75z" fill="#f5bf49"/>
    <path d="M30.93 46.16c-1.21 3.27-3.06 5.78-6.31 6.98-1.57.58-2.77.24-3.49-.87-.67-1.03-.45-2.92.51-3.88.18-.18.51-.25.79-.28 1.21-.14 2.45-.11 3.62-.39 1.6-.38 3.15-.99 4.89-1.56zm38.08.24l7 1.56c.63.13 1.29.11 1.93.18.11.01.23.05.32.12.76.58 1.27 2.44.93 3.37-.42 1.17-1.37 1.79-2.71 1.74-.27 0-.54-.02-.79-.1-3.5-1.09-5.3-3.79-6.68-6.87z" fill="#00afcb"/>
    <path d="M58.21 57.84c3.22-.03 5.96-.96 8.75-2.05.14 2.64-.36 5.05-1.36 7.52-2.05-2.35-4.37-4.17-7.4-5.48zM33.03 56.1l7.99 1.96c-2.41 1.2-4.74 2.89-6.63 5.3-.96-2.43-1.46-4.85-1.36-7.26z" fill="#f5bf49"/>
    <path d="M50.82 83.57c-1.31 0-2.32.03-3.33-.02-.21-.01-.49-.29-.6-.52l-1.42-3.07q-.61-1.35-2.25-1.24l.02 3.81c.07.95-.43 1.19-1.18 1.22h-2.18c-.06-.35-.17-.71-.17-1.07l-.04-13.77c0-.65.18-.91.86-.89l5.99.13c2.38.17 4.14 2.02 4.4 4.42.26 2.45-.48 4.11-2.54 5.59l2.45 5.41zm-7.56-12.34v4.18h2.28c1.34-.06 1.96-.7 1.98-2 .02-1.28-.7-2.09-1.97-2.17-.74-.05-1.48 0-2.28 0zm11.6 12.04v3.47c0 .66-.27 1.01-.96.95-.55-.05-1.12-.07-1.66-.2-.18-.04-.42-.35-.42-.54l.02-13.85c0-.05.05-.1.13-.26l2.33.03c.25.02.46.4.69.62 1.86-1.67 4.96-.88 6.23 1.11 1.38 2.17 1.44 4.44.34 6.7-.97 2-3.53 3.57-6.7 1.97zm-.25-4.8c.14 1.63.37 2.03 1.55 2.43.93.31 1.83.03 2.46-.76.77-.97.76-2.68-.03-3.66-.92-1.15-2.75-1.11-3.49.15-.31.53-.33 1.22-.48 1.84zm.97-54.79c0-1.63.97-2.78 2.37-2.78 1.34 0 2.43 1.24 2.45 2.77.02 1.52-1.17 2.95-2.43 2.93-1.35-.02-2.38-1.28-2.38-2.93zm-11.1.05c0 1.9-1.56 3.27-3.13 2.75-1.26-.41-2.01-2.01-1.67-3.54.3-1.37 1.4-2.18 2.71-2.02 1.17.15 2.1 1.4 2.1 2.81z" fill="#02304e"/>
    <path d="M43.26 71.23h2.28c1.28.08 1.99.89 1.97 2.17-.02 1.3-.64 1.94-1.98 2h-2.28v-4.18zm11.35 7.24c.15-.62.17-1.32.48-1.84.75-1.27 2.58-1.31 3.49-.15.78.98.8 2.7.03 3.66-.63.79-1.53 1.07-2.46.76-1.17-.39-1.41-.79-1.55-2.43z" fill="#f5bf49"/>
</svg>