<?xml version="1.0" encoding="UTF-8"?><svg id="Layer_2" xmlns="http://www.w3.org/2000/svg" viewBox="0 0 100 118.83"><defs><style>.cls-1{fill:#023b53;}.cls-1,.cls-2,.cls-3,.cls-4{stroke-width:0px;}.cls-2{fill:#4fa099;}.cls-3{fill:#c85b13;}.cls-4{fill:#f3b537;}</style></defs><g id="Layer_1-2"><path class="cls-1" d="M29.51,61.73c-2.17-4.02-2.98-8.24-3.37-12.6-1.23.27-2.37.57-3.54.75-4.9.76-9.52.03-13.65-2.84-2.31-1.61-3.85-3.81-4.81-6.49-.91-2.56-1.03-5.18-.7-7.78.44-3.5,1.64-6.79,3.83-9.63,1.01-1.31,2.05-2.6,3.13-3.86.43-.5,1.01-.86,1.56-1.31-.86-1.49-2.08-2.46-3.5-3.18-1.75-.89-3.63-1.15-5.57-.89-.29.04-.59.05-.88.04-1.12-.06-1.83-.65-2-1.74-.13-.82.28-1.97,1.33-2.33,1.64-.57,3.3-.61,5.03-.37,1.72.24,3.31.73,4.8,1.57,1.72.97,3.21,2.23,4.34,3.88.33.48.69.37,1.1.22,1.1-.41,2.18-.86,3.29-1.22.77-.25.94-.4.88-1.2-.27-3.84-2.94-6.86-6.69-7.6-.46-.09-.93-.19-1.36-.36-.99-.37-1.37-1.12-1.2-2.21.13-.86,1.03-1.57,1.94-1.65,5.78-.48,10.71,4.58,11.57,9.34.18.99.25,2.01.39,3.16.38.06.87.17,1.36.23,1.72.22,3.35.75,4.92,1.47,3.57,1.66,6.23,4.28,8.2,7.79.65-1.29,1.16-2.58,1.91-3.71,1.16-1.75,2.41-3.44,3.74-5.06,2.07-2.5,4.45-4.71,6.98-6.74,2.48-1.99,5.1-3.77,7.99-5.09,1.59-.73,3.22-1.44,4.9-1.84,3.03-.72,6.07-.81,8.97.69,2.2,1.14,3.47,2.97,3.94,5.33.85,4.23-.16,8.18-2.1,11.91-.89,1.71-2.01,3.3-3.02,4.93,1.1-.23,2.29-.52,3.49-.7,1.17-.17,2.36-.27,3.54-.32,1.24-.05,2.48-.04,3.72,0,2.72.07,5.38.46,7.98,1.3,1.95.62,3.8,1.42,5.44,2.67,2.61,2.01,3.37,5.18,1.82,8.12-.5.95-1.22,1.8-1.94,2.61-2.86,3.26-6.63,5-10.7,6.15-1.28.36-2.64.45-3.96.67-.2.03-.4.1-.72.19,1.19,1.03,2.33,1.94,3.37,2.94,5.21,5,8.61,11.02,10.06,18.1.66,3.22.75,6.45.16,9.71-.16.88.09,1.87.28,2.78.76,3.81,1.57,7.61,2.36,11.41.11.51.21,1.01.32,1.52.2.87,0,1.56-.58,1.93-.67.43-1.29.21-1.87-.21-2.53-1.79-5.09-3.55-7.59-5.4-.98-.72-1.79-1-3.07-.54-3.38,1.23-6.93,1.77-10.53,1.67-5.51-.15-10.68-1.58-15.47-4.33-.58-.33-1.15-.68-1.89-1.11,2.01,8.63.81,16.6-4.13,23.82-4.95,7.23-11.91,11.41-20.59,12.31-14.96,1.55-26.67-8.54-30.11-19.91-2.74-9.07-1.45-17.56,4.07-25.26,5.55-7.74,13.38-11.29,22.86-11.77ZM54.42,89.87c.1-13.72-11.42-24.45-24.5-24.51-6.74-.03-12.53,2.3-17.39,6.92-4.88,4.64-7.41,10.47-7.59,17.1-.19,6.92,2.17,13.06,7.12,18.04,4.8,4.83,10.6,7.44,17.46,7.5,13.31.13,24.94-10.42,24.89-25.06ZM24.09,17.12c-.83.09-1.66.13-2.47.28-3.55.66-6.52,2.41-9,4.97-4.02,4.14-6.22,9-5.43,14.89.36,2.69,1.62,4.95,3.81,6.59,3.15,2.36,6.78,2.99,10.56,2.39,6.66-1.05,11.42-4.76,14.23-10.88,1.31-2.86,1.73-5.9.95-9.01-1.49-5.92-7.69-9.28-12.65-9.25ZM69.03,3.92c-2.43.05-4.7.75-6.86,1.81-4.44,2.18-8.29,5.16-11.73,8.69-3.23,3.32-6.08,6.9-7.75,11.29-.77,2.02-1.38,4.1-1.53,6.27-.07,1.07.5,1.72,1.54,1.86.6.08,1.23.19,1.81.09,2.42-.39,4.87-.66,7.22-1.32,5.47-1.53,10.37-4.17,14.6-8.04,2.43-2.22,4.6-4.63,6.22-7.49,1.5-2.64,2.47-5.45,2.16-8.56-.15-1.47-.7-2.75-1.95-3.63-1.12-.78-2.4-.99-3.73-.98ZM38.87,38.46c-2.21,3.63-5.15,6.49-8.74,8.71-.19.12-.36.48-.34.7.15,1.66.26,3.32.55,4.95.43,2.44,1.19,4.78,2.42,6.95.11.19.39.41.57.4,2.47-.2,4.9-.67,7.19-1.63,8.87-3.7,14.1-10.5,16.63-19.64-.87-.3-1.66-.61-2.48-.83-.43-.11-.92-.13-1.37-.07-1.74.25-3.47.63-5.22.81-3.08.33-6.16.16-9.21-.37ZM58.37,34.84c.27.11.41.18.55.22,3.43,1.15,6.87,2.29,10.3,3.44,4.22,1.42,8.51,2.31,13,1.7,3.92-.54,7.57-1.8,10.75-4.21,1.16-.88,2.17-1.9,2.8-3.24.51-1.09.41-2.12-.43-3-.45-.46-.96-.88-1.51-1.22-2.27-1.4-4.83-1.91-7.42-2.25-4.5-.59-8.93-.16-13.3,1.06-3.18.89-6.08,2.39-8.92,4.01-1.93,1.1-3.82,2.29-5.82,3.49ZM67.97,42.38c-2.4,12-9.53,20.19-20.46,25.37.13.11.25.21.37.3,1.94,1.52,3.58,3.33,5.02,5.31.31.42.46.69,1.07.43,4.69-2.01,8.73-4.91,12.11-8.72,3.78-4.24,6.19-9.19,7.4-14.73.43-1.99.75-4,.68-5.93-2.13-.7-4.18-1.38-6.19-2.04ZM63.31,81.26c2.3,1.05,4.65,1.76,7.08,2.21.22.04.5,0,.71-.1,9.91-4.59,15.74-12.29,17.53-23.05.09-.57.23-1.22.04-1.72-.96-2.57-2.49-4.81-4.33-6.89-2.01,13.43-9.42,22.97-21.03,29.56Z"/><path class="cls-4" d="M54.42,89.87c.04,14.63-11.58,25.18-24.89,25.06-6.86-.06-12.66-2.67-17.46-7.5-4.95-4.98-7.31-11.12-7.12-18.04.18-6.64,2.71-12.46,7.59-17.1,4.86-4.62,10.65-6.96,17.39-6.92,13.07.06,24.59,10.79,24.5,24.51ZM27.62,104.83c0,.88,0,1.69,0,2.51.02,1.33.66,1.9,2.14,1.89,1.51,0,2.18-.6,2.19-1.95,0-.34,0-.68,0-1.01q0-1.44,1.41-1.64c3.71-.52,6.47-2.99,7.19-6.55.66-3.3-.18-6.14-2.99-8.17-1.4-1.01-3.05-1.55-4.73-1.91-.69-.15-.97-.4-.92-1.15.08-1.12.01-2.25.01-3.38,0-.85,0-1.69,0-2.61,1.19.43,1.92,1.28,2.66,2.13.13.15.29.37.44.37,1.23,0,2.47-.03,3.7-.1.51-.03.76-.4.66-.91-.15-.76-.22-1.58-.54-2.27-1.22-2.59-3.46-3.88-6.13-4.53-.54-.13-.88-.26-.82-.93.05-.51-.06-1.03-.08-1.55-.03-.84-.48-1.45-1.18-1.59-1.39-.28-2.65.08-2.96.88-.07.18-.08.4-.08.6,0,.75,0,1.51,0,2.24-2.68.51-4.13,1.17-5.72,2.59-3.59,3.2-3.33,9.27.54,12.15,1.29.96,2.77,1.5,4.32,1.83.64.14.91.37.89,1.1-.06,1.98-.01,3.97-.01,5.95,0,.21-.02.43-.04.69-.17-.04-.28-.06-.38-.1-1.15-.46-1.97-1.32-2.71-2.27-.28-.36-.56-.52-1.01-.51-.92.03-1.85,0-2.77,0-1.28,0-1.68.47-1.44,1.72.43,2.24,1.7,3.89,3.62,5.05,1.43.86,3.02,1.24,4.75,1.42ZM8.64,90.4c.04.49.11,1.07.15,1.65.19,2.5.97,4.85,2.05,7.08,1.92,3.97,4.89,6.96,8.71,9.15.38.22.74.43,1.04-.06.29-.48-.12-.7-.44-.89-1.6-.99-3.03-2.17-4.31-3.55-4.24-4.56-6.17-9.9-5.42-16.13.38-3.18,1.45-6.12,3.21-8.79.64-.97,1.42-1.86,2.13-2.79.25-.32.62-.68.17-1.02-.14-.11-.66.09-.87.29-.62.62-1.21,1.28-1.74,1.97-2.93,3.83-4.5,8.16-4.68,13.08Z"/><path class="cls-4" d="M24.09,17.12c4.96-.04,11.17,3.32,12.65,9.25.78,3.12.36,6.15-.95,9.01-2.81,6.11-7.57,9.83-14.23,10.88-3.78.6-7.41-.03-10.56-2.39-2.19-1.64-3.45-3.9-3.81-6.59-.8-5.9,1.41-10.75,5.43-14.89,2.48-2.56,5.45-4.31,9-4.97.81-.15,1.65-.19,2.47-.28ZM19.12,25.16c-1.7-.01-3.04,1.3-3.06,3-.03,1.74,1.38,3.23,3.04,3.22,1.67-.01,3.09-1.44,3.09-3.11,0-1.7-1.38-3.1-3.06-3.11Z"/><path class="cls-2" d="M69.03,3.92c1.33,0,2.61.2,3.73.98,1.25.88,1.81,2.15,1.95,3.63.31,3.11-.66,5.92-2.16,8.56-1.62,2.86-3.79,5.28-6.22,7.49-4.23,3.86-9.12,6.51-14.6,8.04-2.35.66-4.8.93-7.22,1.32-.59.09-1.21,0-1.81-.09-1.05-.14-1.61-.8-1.54-1.86.15-2.17.76-4.25,1.53-6.27,1.67-4.39,4.52-7.97,7.75-11.29,3.44-3.53,7.29-6.51,11.73-8.69,2.16-1.06,4.43-1.76,6.86-1.81Z"/><path class="cls-4" d="M38.87,38.46c3.06.53,6.13.7,9.21.37,1.75-.19,3.48-.56,5.22-.81.45-.06.93-.04,1.37.07.82.22,1.61.53,2.48.83-2.53,9.14-7.76,15.93-16.63,19.64-2.29.96-4.72,1.43-7.19,1.63-.18.01-.46-.21-.57-.4-1.23-2.16-2-4.51-2.42-6.95-.29-1.63-.4-3.3-.55-4.95-.02-.23.15-.59.34-.7,3.59-2.22,6.54-5.08,8.74-8.71Z"/><path class="cls-2" d="M58.37,34.84c2.01-1.21,3.89-2.39,5.82-3.49,2.85-1.62,5.74-3.12,8.92-4.01,4.37-1.22,8.8-1.65,13.3-1.06,2.59.34,5.15.85,7.42,2.25.55.34,1.07.76,1.51,1.22.85.87.94,1.9.43,3-.62,1.35-1.64,2.37-2.8,3.24-3.19,2.41-6.83,3.67-10.75,4.21-4.48.62-8.78-.28-13-1.7-3.43-1.15-6.87-2.3-10.3-3.44-.14-.05-.28-.11-.55-.22Z"/><path class="cls-4" d="M67.97,42.38c2.01.66,4.06,1.34,6.19,2.04.07,1.93-.24,3.94-.68,5.93-1.21,5.54-3.62,10.49-7.4,14.73-3.39,3.8-7.43,6.71-12.11,8.72-.61.26-.76,0-1.07-.43-1.44-1.99-3.09-3.79-5.02-5.31-.12-.1-.24-.2-.37-.3,10.93-5.18,18.06-13.37,20.46-25.37Z"/><path class="cls-4" d="M63.31,81.26c11.61-6.58,19.01-16.12,21.03-29.56,1.84,2.08,3.37,4.32,4.33,6.89.19.5.05,1.15-.04,1.72-1.79,10.76-7.61,18.47-17.53,23.05-.21.1-.48.14-.71.1-2.43-.45-4.78-1.16-7.08-2.21Z"/><path class="cls-3" d="M27.62,104.83c-1.73-.18-3.32-.56-4.75-1.42-1.93-1.16-3.19-2.82-3.62-5.05-.24-1.25.16-1.71,1.44-1.72.92,0,1.85.02,2.77,0,.46-.02.74.15,1.01.51.73.95,1.56,1.81,2.71,2.27.1.04.21.06.38.1.01-.26.04-.48.04-.69,0-1.98-.05-3.97.01-5.95.02-.73-.25-.96-.89-1.1-1.55-.34-3.03-.87-4.32-1.83-3.86-2.88-4.12-8.95-.54-12.15,1.58-1.41,3.03-2.08,5.72-2.59,0-.73,0-1.49,0-2.24,0-.2,0-.42.08-.6.31-.79,1.58-1.16,2.96-.88.7.14,1.15.75,1.18,1.59.02.52.13,1.04.08,1.55-.07.66.27.79.82.93,2.67.65,4.91,1.94,6.13,4.53.32.69.39,1.5.54,2.27.1.51-.16.88-.66.91-1.23.07-2.47.1-3.7.1-.15,0-.32-.22-.44-.37-.73-.85-1.47-1.7-2.66-2.13,0,.92,0,1.77,0,2.61,0,1.13.07,2.26-.01,3.38-.05.75.23,1,.92,1.15,1.68.37,3.32.9,4.73,1.91,2.81,2.03,3.65,4.87,2.99,8.17-.71,3.56-3.48,6.03-7.19,6.55q-1.42.2-1.41,1.64c0,.34,0,.68,0,1.01-.01,1.34-.68,1.94-2.19,1.95-1.47,0-2.12-.56-2.14-1.89,0-.81,0-1.62,0-2.51ZM31.98,93.06v6.65c1.93-.05,3.54-1.42,3.57-3.12.04-1.62-1.15-2.95-3.57-3.53ZM27.54,86.46v-5.76c-1.64.27-2.87,1.38-2.88,2.55-.01,1.36,1.33,2.87,2.88,3.2Z"/><path class="cls-3" d="M8.64,90.4c.18-4.93,1.74-9.25,4.68-13.08.53-.69,1.12-1.35,1.74-1.97.2-.2.73-.4.87-.29.45.35.08.7-.17,1.02-.71.93-1.49,1.81-2.13,2.79-1.76,2.67-2.83,5.61-3.21,8.79-.74,6.23,1.19,11.57,5.42,16.13,1.28,1.38,2.71,2.56,4.31,3.55.32.2.73.41.44.89-.29.49-.66.27-1.04.06-3.82-2.18-6.79-5.17-8.71-9.15-1.08-2.24-1.86-4.58-2.05-7.08-.04-.58-.11-1.16-.15-1.65Z"/><path class="cls-1" d="M19.12,25.16c1.68.01,3.06,1.41,3.06,3.11,0,1.67-1.42,3.1-3.09,3.11-1.66.01-3.06-1.48-3.04-3.22.03-1.7,1.36-3.01,3.06-3Z"/><path class="cls-4" d="M31.98,93.06c2.43.58,3.61,1.91,3.57,3.53-.04,1.71-1.64,3.08-3.57,3.12v-6.65Z"/><path class="cls-4" d="M27.54,86.46c-1.55-.33-2.9-1.85-2.88-3.2,0-1.17,1.24-2.28,2.88-2.55v5.76Z"/></g></svg>